<svg width="51" height="64" viewBox="0 0 51 64" fill="none" xmlns="http://www.w3.org/2000/svg">
<path d="M51 38.4435C51 52.558 39.5833 64 25.5 64C11.4167 64 0 52.558 0 38.4435C0 24.3291 11.4167 12.8871 25.5 12.8871C39.5833 12.8871 51 24.3291 51 38.4435Z" fill="white"/>
<path d="M33.456 0L46.3014 33.1871C46.8279 34.5238 47.4245 35.4207 48.0914 35.878C48.7582 36.3001 49.3724 36.5287 49.9339 36.5639V37.6191C49.232 37.5488 48.3721 37.5136 47.3543 37.5136C46.3365 37.4784 45.3187 37.4608 44.3009 37.4608C42.9321 37.4608 41.6511 37.4784 40.4578 37.5136C39.2645 37.5136 38.2994 37.5488 37.5623 37.6191V36.5639C39.3523 36.4935 40.4929 36.1946 40.9843 35.6669C41.4756 35.1042 41.3703 33.9258 40.6684 32.1319L30.8764 5.90932L31.7187 5.22341L22.5585 29.0717C21.9969 30.4787 21.6635 31.6746 21.5582 32.6595C21.4529 33.6092 21.5406 34.3655 21.8214 34.9283C22.1373 35.4911 22.6462 35.8956 23.3481 36.1418C24.0852 36.388 24.9977 36.5287 26.0857 36.5639V37.6191C25.103 37.5488 24.0676 37.5136 22.9796 37.5136C21.9267 37.4784 20.944 37.4608 20.0315 37.4608C19.1541 37.4608 18.3995 37.4784 17.7677 37.5136C17.1711 37.5136 16.6095 37.5488 16.0831 37.6191V36.5639C16.785 36.388 17.5045 35.9835 18.2415 35.3504C18.9786 34.6821 19.6454 33.5565 20.2421 31.9736L32.6137 0C32.7541 0 32.8945 0 33.0348 0C33.1752 0 33.3156 0 33.456 0ZM39.8787 22.4237V23.479H24.1905L24.7169 22.4237H39.8787Z" fill="white"/>
<path d="M40.2719 17.6094C38.3684 16.2513 36.2707 15.1487 34.0289 14.3515L37.0432 22.4237H25.112L28.6986 13.0862C28.3329 13.0403 27.9647 13.0022 27.5944 12.972L20.2421 31.9736C19.6454 33.5565 18.9786 34.6821 18.2415 35.3504C17.5045 35.9835 16.785 36.388 16.0831 36.5639V37.6191C16.6095 37.5488 17.1711 37.5136 17.7677 37.5136C18.3995 37.4784 19.1541 37.4608 20.0315 37.4608C20.944 37.4608 21.9267 37.4784 22.9796 37.5136C24.0676 37.5136 25.103 37.5488 26.0857 37.6191V36.5639C24.9977 36.5287 24.0852 36.388 23.3481 36.1418C22.6462 35.8956 22.1373 35.4911 21.8214 34.9283C21.5406 34.3655 21.4529 33.6092 21.5582 32.6595C21.6635 31.6746 21.9969 30.4787 22.5585 29.0717L24.7067 23.479H37.4372L40.6684 32.1319C41.3703 33.9258 41.4756 35.1042 40.9843 35.6669C40.4929 36.1946 39.3523 36.4935 37.5623 36.5639V37.6191C38.2994 37.5488 39.2645 37.5136 40.4578 37.5136C41.6511 37.4784 42.9321 37.4608 44.3009 37.4608C45.3187 37.4608 46.3365 37.4784 47.3543 37.5136C48.3721 37.5136 49.232 37.5488 49.9339 37.6191V36.5639C49.3724 36.5287 48.7582 36.3001 48.0914 35.878C47.4245 35.4207 46.8279 34.5238 46.3014 33.1871L40.2719 17.6094Z" fill="black"/>
</svg>
