<svg width="303" height="226" viewBox="0 0 303 226" fill="none" xmlns="http://www.w3.org/2000/svg">
<mask id="mask0_1_55" style="mask-type:alpha" maskUnits="userSpaceOnUse" x="0" y="0" width="303" height="226">
<rect width="303" height="226" transform="matrix(-1 0 0 1 303 0)" fill="black"/>
</mask>
<g mask="url(#mask0_1_55)">
<line y1="-0.5" x2="744" y2="-0.5" transform="matrix(0.775579 0.63125 0.63125 -0.775579 -128.831 -98.7258)" stroke="white" stroke-opacity="0.7"/>
<line y1="-0.5" x2="744" y2="-0.5" transform="matrix(0.775579 0.63125 0.63125 -0.775579 -138.931 -86.3165)" stroke="white" stroke-opacity="0.7"/>
<line y1="-0.5" x2="744" y2="-0.5" transform="matrix(0.775579 0.63125 0.63125 -0.775579 -149.031 -73.9073)" stroke="white" stroke-opacity="0.7"/>
<line y1="-0.5" x2="744" y2="-0.5" transform="matrix(0.775579 0.63125 0.63125 -0.775579 -159.131 -61.498)" stroke="white" stroke-opacity="0.7"/>
<line y1="-0.5" x2="744" y2="-0.5" transform="matrix(0.775579 0.63125 0.63125 -0.775579 -169.231 -49.0887)" stroke="white" stroke-opacity="0.7"/>
<line y1="-0.5" x2="744" y2="-0.5" transform="matrix(0.775579 0.63125 0.63125 -0.775579 -179.331 -36.6794)" stroke="white" stroke-opacity="0.7"/>
<line y1="-0.5" x2="744" y2="-0.5" transform="matrix(0.775579 0.63125 0.63125 -0.775579 -189.431 -24.2702)" stroke="white" stroke-opacity="0.7"/>
<line y1="-0.5" x2="744" y2="-0.5" transform="matrix(0.775579 0.63125 0.63125 -0.775579 -199.531 -11.861)" stroke="white" stroke-opacity="0.7"/>
<line y1="-0.5" x2="744" y2="-0.5" transform="matrix(0.775579 0.63125 0.63125 -0.775579 -209.631 0.54834)" stroke="white" stroke-opacity="0.7"/>
<line y1="-0.5" x2="744" y2="-0.5" transform="matrix(0.775579 0.63125 0.63125 -0.775579 -219.731 12.9576)" stroke="white" stroke-opacity="0.7"/>
<line y1="-0.5" x2="744" y2="-0.5" transform="matrix(0.775579 0.63125 0.63125 -0.775579 -229.831 25.3669)" stroke="white" stroke-opacity="0.7"/>
<line y1="-0.5" x2="744" y2="-0.5" transform="matrix(0.775579 0.63125 0.63125 -0.775579 -239.931 37.7761)" stroke="white" stroke-opacity="0.7"/>
<line y1="-0.5" x2="744" y2="-0.5" transform="matrix(0.775579 0.63125 0.63125 -0.775579 -250.031 50.1854)" stroke="white" stroke-opacity="0.7"/>
<line y1="-0.5" x2="744" y2="-0.5" transform="matrix(0.775579 0.63125 0.63125 -0.775579 -260.131 62.5947)" stroke="white" stroke-opacity="0.7"/>
</g>
</svg>
