<svg width="548" height="859" viewBox="0 0 548 859" fill="none" xmlns="http://www.w3.org/2000/svg">
<mask id="path-1-inside-1_10_145" fill="white">
<path d="M100.221 586.238C90.1626 577.605 89.0066 562.453 97.639 552.395L129.551 515.211C138.183 505.153 153.335 503.997 163.394 512.629L200.577 544.541C210.636 553.174 211.792 568.326 203.159 578.384L171.247 615.568C162.615 625.626 147.463 626.782 137.405 618.15L100.221 586.238Z"/>
<path d="M191.283 664.39C181.224 655.757 180.068 640.605 188.701 630.547L220.613 593.363C229.245 583.305 244.397 582.149 254.456 590.781L291.639 622.693C301.698 631.326 302.854 646.478 294.221 656.536L262.309 693.72C253.677 703.778 238.525 704.934 228.466 696.302L191.283 664.39Z"/>
<path d="M282.345 742.542C272.286 733.909 271.13 718.757 279.763 708.699L311.675 671.515C320.307 661.457 335.459 660.301 345.518 668.933L382.701 700.845C392.76 709.478 393.916 724.63 385.283 734.688L353.371 771.872C344.739 781.93 329.587 783.086 319.528 774.454L282.345 742.542Z"/>
<path d="M373.407 820.694C363.348 812.061 362.192 796.909 370.825 786.851L402.737 749.667C411.369 739.609 426.521 738.453 436.579 747.085L473.763 778.997C483.821 787.63 484.977 802.782 476.345 812.84L444.433 850.024C435.801 860.082 420.649 861.238 410.59 852.606L373.407 820.694Z"/>
<path d="M9.15909 508.086C-0.899324 499.453 -2.05532 484.301 6.57711 474.243L38.4892 437.059C47.1216 427.001 62.2735 425.845 72.332 434.477L109.516 466.389C119.574 475.022 120.73 490.174 112.098 500.232L80.1855 537.416C71.553 547.474 56.4011 548.63 46.3427 539.998L9.15909 508.086Z"/>
<path d="M218.054 522.642C207.996 514.01 206.84 498.858 215.472 488.8L247.384 451.616C256.017 441.558 271.168 440.402 281.227 449.034L318.411 480.946C328.469 489.579 329.625 504.73 320.992 514.789L289.08 551.972C280.448 562.031 265.296 563.187 255.238 554.554L218.054 522.642Z"/>
<path d="M306.081 598.189C296.022 589.557 294.866 574.405 303.499 564.347L335.411 527.163C344.043 517.105 359.195 515.948 369.253 524.581L406.437 556.493C416.495 565.125 417.651 580.277 409.019 590.336L377.107 627.519C368.474 637.578 353.323 638.734 343.264 630.101L306.081 598.189Z"/>
<path d="M394.107 673.736C384.049 665.104 382.893 649.952 391.525 639.893L423.437 602.71C432.07 592.651 447.221 591.495 457.28 600.128L494.463 632.04C504.522 640.672 505.678 655.824 497.045 665.883L465.133 703.066C456.501 713.125 441.349 714.281 431.291 705.648L394.107 673.736Z"/>
<path d="M130.028 447.095C119.969 438.463 118.813 423.311 127.446 413.253L159.358 376.069C167.99 366.011 183.142 364.855 193.2 373.487L230.384 405.399C240.442 414.032 241.598 429.184 232.966 439.242L201.054 476.426C192.422 486.484 177.27 487.64 167.211 479.008L130.028 447.095Z"/>
<path d="M42.0011 371.549C31.9427 362.916 30.7867 347.764 39.4191 337.706L71.3312 300.522C79.9636 290.464 95.1155 289.308 105.174 297.94L142.358 329.852C152.416 338.485 153.572 353.637 144.94 363.695L113.027 400.879C104.395 410.937 89.2431 412.093 79.1847 403.461L42.0011 371.549Z"/>
<path d="M335.887 459.047C325.829 450.415 324.673 435.263 333.305 425.204L365.217 388.021C373.85 377.962 389.002 376.806 399.06 385.439L436.244 417.351C446.302 425.983 447.458 441.135 438.826 451.194L406.914 488.377C398.281 498.436 383.129 499.592 373.071 490.959L335.887 459.047Z"/>
<path d="M427.708 537.85C417.649 529.218 416.493 514.066 425.126 504.008L457.038 466.824C465.67 456.766 480.822 455.61 490.881 464.242L528.064 496.154C538.123 504.786 539.279 519.938 530.646 529.997L498.734 567.18C490.102 577.239 474.95 578.395 464.891 569.762L427.708 537.85Z"/>
<path d="M245.584 381.546C235.526 372.914 234.37 357.762 243.002 347.704L274.914 310.52C283.547 300.462 298.699 299.306 308.757 307.938L345.941 339.85C355.999 348.482 357.155 363.634 348.523 373.693L316.61 410.876C307.978 420.935 292.826 422.091 282.768 413.458L245.584 381.546Z"/>
<path d="M155.281 304.046C145.223 295.413 144.067 280.261 152.699 270.203L184.611 233.019C193.244 222.961 208.396 221.805 218.454 230.437L255.638 262.349C265.696 270.982 266.852 286.134 258.22 296.192L226.307 333.376C217.675 343.434 202.523 344.59 192.465 335.958L155.281 304.046Z"/>
<path d="M64.978 226.545C54.9196 217.912 53.7636 202.761 62.3961 192.702L94.3081 155.518C102.941 145.46 118.092 144.304 128.151 152.937L165.335 184.849C175.393 193.481 176.549 208.633 167.916 218.691L136.004 255.875C127.372 265.933 112.22 267.089 102.162 258.457L64.978 226.545Z"/>
<path d="M453.72 395.452C443.662 386.819 442.506 371.667 451.138 361.609L483.05 324.425C491.683 314.367 506.835 313.211 516.893 321.843L554.077 353.755C564.135 362.388 565.291 377.54 556.659 387.598L524.747 424.782C516.114 434.84 500.962 435.996 490.904 427.364L453.72 395.452Z"/>
<path d="M361.899 316.648C351.841 308.016 350.685 292.864 359.318 282.806L391.23 245.622C399.862 235.564 415.014 234.408 425.072 243.04L462.256 274.952C472.314 283.585 473.47 298.737 464.838 308.795L432.926 345.979C424.293 356.037 409.141 357.193 399.083 348.561L361.899 316.648Z"/>
<path d="M270.079 237.845C260.02 229.213 258.864 214.061 267.497 204.002L299.409 166.819C308.041 156.76 323.193 155.604 333.252 164.237L370.435 196.149C380.494 204.781 381.65 219.933 373.017 229.992L341.105 267.175C332.473 277.234 317.321 278.39 307.262 269.757L270.079 237.845Z"/>
<path d="M178.258 159.042C168.2 150.41 167.044 135.258 175.676 125.199L207.588 88.0156C216.221 77.9572 231.372 76.8012 241.431 85.4336L278.615 117.346C288.673 125.978 289.829 141.13 281.196 151.188L249.284 188.372C240.652 198.43 225.5 199.586 215.442 190.954L178.258 159.042Z"/>
<path d="M86.4373 80.2387C76.3789 71.6063 75.2229 56.4543 83.8553 46.3959L115.767 9.21231C124.4 -0.846102 139.552 -2.00209 149.61 6.63034L186.794 38.5424C196.852 47.1748 198.008 62.3268 189.376 72.3852L157.464 109.569C148.831 119.627 133.679 120.783 123.621 112.151L86.4373 80.2387Z"/>
</mask>
<path d="M100.221 586.238C90.1626 577.605 89.0066 562.453 97.639 552.395L129.551 515.211C138.183 505.153 153.335 503.997 163.394 512.629L200.577 544.541C210.636 553.174 211.792 568.326 203.159 578.384L171.247 615.568C162.615 625.626 147.463 626.782 137.405 618.15L100.221 586.238Z" stroke="#272727" stroke-opacity="0.5" stroke-width="4" mask="url(#path-1-inside-1_10_145)"/>
<path d="M191.283 664.39C181.224 655.757 180.068 640.605 188.701 630.547L220.613 593.363C229.245 583.305 244.397 582.149 254.456 590.781L291.639 622.693C301.698 631.326 302.854 646.478 294.221 656.536L262.309 693.72C253.677 703.778 238.525 704.934 228.466 696.302L191.283 664.39Z" stroke="#272727" stroke-opacity="0.5" stroke-width="4" mask="url(#path-1-inside-1_10_145)"/>
<path d="M282.345 742.542C272.286 733.909 271.13 718.757 279.763 708.699L311.675 671.515C320.307 661.457 335.459 660.301 345.518 668.933L382.701 700.845C392.76 709.478 393.916 724.63 385.283 734.688L353.371 771.872C344.739 781.93 329.587 783.086 319.528 774.454L282.345 742.542Z" stroke="#272727" stroke-opacity="0.5" stroke-width="4" mask="url(#path-1-inside-1_10_145)"/>
<path d="M373.407 820.694C363.348 812.061 362.192 796.909 370.825 786.851L402.737 749.667C411.369 739.609 426.521 738.453 436.579 747.085L473.763 778.997C483.821 787.63 484.977 802.782 476.345 812.84L444.433 850.024C435.801 860.082 420.649 861.238 410.59 852.606L373.407 820.694Z" stroke="#272727" stroke-opacity="0.5" stroke-width="4" mask="url(#path-1-inside-1_10_145)"/>
<path d="M9.15909 508.086C-0.899324 499.453 -2.05532 484.301 6.57711 474.243L38.4892 437.059C47.1216 427.001 62.2735 425.845 72.332 434.477L109.516 466.389C119.574 475.022 120.73 490.174 112.098 500.232L80.1855 537.416C71.553 547.474 56.4011 548.63 46.3427 539.998L9.15909 508.086Z" stroke="#272727" stroke-opacity="0.5" stroke-width="4" mask="url(#path-1-inside-1_10_145)"/>
<path d="M218.054 522.642C207.996 514.01 206.84 498.858 215.472 488.8L247.384 451.616C256.017 441.558 271.168 440.402 281.227 449.034L318.411 480.946C328.469 489.579 329.625 504.73 320.992 514.789L289.08 551.972C280.448 562.031 265.296 563.187 255.238 554.554L218.054 522.642Z" stroke="#272727" stroke-opacity="0.5" stroke-width="4" mask="url(#path-1-inside-1_10_145)"/>
<path d="M306.081 598.189C296.022 589.557 294.866 574.405 303.499 564.347L335.411 527.163C344.043 517.105 359.195 515.948 369.253 524.581L406.437 556.493C416.495 565.125 417.651 580.277 409.019 590.336L377.107 627.519C368.474 637.578 353.323 638.734 343.264 630.101L306.081 598.189Z" stroke="#272727" stroke-opacity="0.5" stroke-width="4" mask="url(#path-1-inside-1_10_145)"/>
<path d="M394.107 673.736C384.049 665.104 382.893 649.952 391.525 639.893L423.437 602.71C432.07 592.651 447.221 591.495 457.28 600.128L494.463 632.04C504.522 640.672 505.678 655.824 497.045 665.883L465.133 703.066C456.501 713.125 441.349 714.281 431.291 705.648L394.107 673.736Z" stroke="#272727" stroke-opacity="0.5" stroke-width="4" mask="url(#path-1-inside-1_10_145)"/>
<path d="M130.028 447.095C119.969 438.463 118.813 423.311 127.446 413.253L159.358 376.069C167.99 366.011 183.142 364.855 193.2 373.487L230.384 405.399C240.442 414.032 241.598 429.184 232.966 439.242L201.054 476.426C192.422 486.484 177.27 487.64 167.211 479.008L130.028 447.095Z" stroke="#272727" stroke-opacity="0.5" stroke-width="4" mask="url(#path-1-inside-1_10_145)"/>
<path d="M42.0011 371.549C31.9427 362.916 30.7867 347.764 39.4191 337.706L71.3312 300.522C79.9636 290.464 95.1155 289.308 105.174 297.94L142.358 329.852C152.416 338.485 153.572 353.637 144.94 363.695L113.027 400.879C104.395 410.937 89.2431 412.093 79.1847 403.461L42.0011 371.549Z" stroke="#272727" stroke-opacity="0.5" stroke-width="4" mask="url(#path-1-inside-1_10_145)"/>
<path d="M335.887 459.047C325.829 450.415 324.673 435.263 333.305 425.204L365.217 388.021C373.85 377.962 389.002 376.806 399.06 385.439L436.244 417.351C446.302 425.983 447.458 441.135 438.826 451.194L406.914 488.377C398.281 498.436 383.129 499.592 373.071 490.959L335.887 459.047Z" stroke="#272727" stroke-opacity="0.5" stroke-width="4" mask="url(#path-1-inside-1_10_145)"/>
<path d="M427.708 537.85C417.649 529.218 416.493 514.066 425.126 504.008L457.038 466.824C465.67 456.766 480.822 455.61 490.881 464.242L528.064 496.154C538.123 504.786 539.279 519.938 530.646 529.997L498.734 567.18C490.102 577.239 474.95 578.395 464.891 569.762L427.708 537.85Z" stroke="#272727" stroke-opacity="0.5" stroke-width="4" mask="url(#path-1-inside-1_10_145)"/>
<path d="M245.584 381.546C235.526 372.914 234.37 357.762 243.002 347.704L274.914 310.52C283.547 300.462 298.699 299.306 308.757 307.938L345.941 339.85C355.999 348.482 357.155 363.634 348.523 373.693L316.61 410.876C307.978 420.935 292.826 422.091 282.768 413.458L245.584 381.546Z" stroke="#272727" stroke-opacity="0.5" stroke-width="4" mask="url(#path-1-inside-1_10_145)"/>
<path d="M155.281 304.046C145.223 295.413 144.067 280.261 152.699 270.203L184.611 233.019C193.244 222.961 208.396 221.805 218.454 230.437L255.638 262.349C265.696 270.982 266.852 286.134 258.22 296.192L226.307 333.376C217.675 343.434 202.523 344.59 192.465 335.958L155.281 304.046Z" stroke="#272727" stroke-opacity="0.5" stroke-width="4" mask="url(#path-1-inside-1_10_145)"/>
<path d="M64.978 226.545C54.9196 217.912 53.7636 202.761 62.3961 192.702L94.3081 155.518C102.941 145.46 118.092 144.304 128.151 152.937L165.335 184.849C175.393 193.481 176.549 208.633 167.916 218.691L136.004 255.875C127.372 265.933 112.22 267.089 102.162 258.457L64.978 226.545Z" stroke="#272727" stroke-opacity="0.5" stroke-width="4" mask="url(#path-1-inside-1_10_145)"/>
<path d="M453.72 395.452C443.662 386.819 442.506 371.667 451.138 361.609L483.05 324.425C491.683 314.367 506.835 313.211 516.893 321.843L554.077 353.755C564.135 362.388 565.291 377.54 556.659 387.598L524.747 424.782C516.114 434.84 500.962 435.996 490.904 427.364L453.72 395.452Z" stroke="#272727" stroke-opacity="0.5" stroke-width="4" mask="url(#path-1-inside-1_10_145)"/>
<path d="M361.899 316.648C351.841 308.016 350.685 292.864 359.318 282.806L391.23 245.622C399.862 235.564 415.014 234.408 425.072 243.04L462.256 274.952C472.314 283.585 473.47 298.737 464.838 308.795L432.926 345.979C424.293 356.037 409.141 357.193 399.083 348.561L361.899 316.648Z" stroke="#272727" stroke-opacity="0.5" stroke-width="4" mask="url(#path-1-inside-1_10_145)"/>
<path d="M270.079 237.845C260.02 229.213 258.864 214.061 267.497 204.002L299.409 166.819C308.041 156.76 323.193 155.604 333.252 164.237L370.435 196.149C380.494 204.781 381.65 219.933 373.017 229.992L341.105 267.175C332.473 277.234 317.321 278.39 307.262 269.757L270.079 237.845Z" stroke="#272727" stroke-opacity="0.5" stroke-width="4" mask="url(#path-1-inside-1_10_145)"/>
<path d="M178.258 159.042C168.2 150.41 167.044 135.258 175.676 125.199L207.588 88.0156C216.221 77.9572 231.372 76.8012 241.431 85.4336L278.615 117.346C288.673 125.978 289.829 141.13 281.196 151.188L249.284 188.372C240.652 198.43 225.5 199.586 215.442 190.954L178.258 159.042Z" stroke="#272727" stroke-opacity="0.5" stroke-width="4" mask="url(#path-1-inside-1_10_145)"/>
<path d="M86.4373 80.2387C76.3789 71.6063 75.2229 56.4543 83.8553 46.3959L115.767 9.21231C124.4 -0.846102 139.552 -2.00209 149.61 6.63034L186.794 38.5424C196.852 47.1748 198.008 62.3268 189.376 72.3852L157.464 109.569C148.831 119.627 133.679 120.783 123.621 112.151L86.4373 80.2387Z" stroke="#272727" stroke-opacity="0.5" stroke-width="4" mask="url(#path-1-inside-1_10_145)"/>
</svg>
